<svg xmlns="http://www.w3.org/2000/svg" width="40" height="40" viewBox="0 0 40 40">
  <defs>
    <filter id="shadow" x="-50%" y="-50%" width="200%" height="200%">
      <feDropShadow dx="0" dy="2" stdDeviation="2" flood-color="#000" flood-opacity="0.3"/>
    </filter>
  </defs>
  
  <!-- Marker background -->
  <path d="M20 35 C12 35, 3 28, 3 20 C3 12, 10 5, 20 5 C30 5, 37 12, 37 20 C37 28, 28 35, 20 35 Z" 
        fill="#4a5c3a" filter="url(#shadow)"/>
  
  <!-- Inner circle -->
  <circle cx="20" cy="20" r="13" fill="#e8d49a"/>
  
  <!-- Person icon -->
  <g transform="translate(20,20)">
    <!-- Head -->
    <circle cx="0" cy="-4" r="3" fill="#8B4513"/>
    
    <!-- Body -->
    <path d="M-4 0 C-4 -2, -2 -4, 0 -4 C2 -4, 4 -2, 4 0 L4 4 C4 6, 2 8, 0 8 C-2 8, -4 6, -4 4 Z" 
          fill="#CD853F"/>
    
    <!-- Arms -->
    <path d="M-4 2 L-6 4 M4 2 L6 4" stroke="#CD853F" stroke-width="1.5" stroke-linecap="round"/>
    
    <!-- Legs -->
    <path d="M-2 8 L-3 12 M2 8 L3 12" stroke="#CD853F" stroke-width="1.5" stroke-linecap="round"/>
  </g>
  
  <!-- Pointer -->
  <path d="M20 35 L17 30 L23 30 Z" fill="#4a5c3a"/>
</svg> 