<svg xmlns="http://www.w3.org/2000/svg" width="40" height="40" viewBox="0 0 40 40">
  <defs>
    <filter id="shadow" x="-50%" y="-50%" width="200%" height="200%">
      <feDropShadow dx="0" dy="2" stdDeviation="2" flood-color="#000" flood-opacity="0.3"/>
    </filter>
  </defs>
  
  <!-- Marker background -->
  <path d="M20 35 C12 35, 3 28, 3 20 C3 12, 10 5, 20 5 C30 5, 37 12, 37 20 C37 28, 28 35, 20 35 Z" 
        fill="#4a5c3a" filter="url(#shadow)"/>
  
  <!-- Inner circle -->
  <circle cx="20" cy="20" r="13" fill="#e8d49a"/>
  
  <!-- Seed icons -->
  <g transform="translate(20,20)">
    <!-- Top left seed -->
    <ellipse cx="-3" cy="-3" rx="2" ry="3" fill="#8B4513" transform="rotate(-15 -3 -3)"/>
    
    <!-- Top right seed -->
    <ellipse cx="3" cy="-3" rx="2" ry="3" fill="#8B4513" transform="rotate(15 3 -3)"/>
    
    <!-- Bottom center seed -->
    <ellipse cx="0" cy="3" rx="2" ry="3" fill="#8B4513"/>
    
    <!-- Small seeds scattered -->
    <circle cx="-1" cy="1" r="0.8" fill="#654321"/>
    <circle cx="2" cy="1" r="0.8" fill="#654321"/>
    <circle cx="0" cy="-1" r="0.8" fill="#654321"/>
  </g>
  
  <!-- Pointer -->
  <path d="M20 35 L17 30 L23 30 Z" fill="#4a5c3a"/>
</svg> 