<svg xmlns="http://www.w3.org/2000/svg" viewBox="0 0 32 45" width="32" height="45">
  <defs>
    <filter id="shadow" x="-50%" y="-50%" width="200%" height="200%">
      <feDropShadow dx="0" dy="2" stdDeviation="2" flood-color="#000" flood-opacity="0.3"/>
    </filter>
  </defs>
  
  <!-- Pin shape -->
  <path d="M16 0C7.2 0 0 7.2 0 16c0 12 16 29 16 29s16-17 16-29c0-8.8-7.2-16-16-16z" 
        fill="#2d4016" 
        stroke="#1a2a0b" 
        stroke-width="0.5" 
        filter="url(#shadow)"/>
  
  <!-- Inner circle -->
  <circle cx="16" cy="16" r="11" fill="#f5e6a6" stroke="#e8d49a" stroke-width="0.5"/>
  
  <!-- Seeds/beans icons -->
  <g transform="translate(16,16)" fill="#2d4016">
    <!-- Top left seed -->
    <ellipse cx="-3" cy="-3" rx="1.8" ry="2.8" transform="rotate(-20 -3 -3)"/>
    <!-- Top right seed -->
    <ellipse cx="3" cy="-3" rx="1.8" ry="2.8" transform="rotate(20 3 -3)"/>
    <!-- Bottom seed -->
    <ellipse cx="0" cy="2.5" rx="1.8" ry="2.8"/>
    
    <!-- Seed detail lines -->
    <g stroke="#f5e6a6" stroke-width="0.4" fill="none">
      <path d="M-3 -3 Q-3 -2 -3 -1"/>
      <path d="M3 -3 Q3 -2 3 -1"/>
      <path d="M0 2.5 Q0 3.5 0 4.5"/>
    </g>
    
    <!-- Seed hilum (the little mark on beans) -->
    <g fill="#f5e6a6">
      <ellipse cx="-3" cy="-3" rx="0.3" ry="0.5" transform="rotate(-20 -3 -3)"/>
      <ellipse cx="3" cy="-3" rx="0.3" ry="0.5" transform="rotate(20 3 -3)"/>
      <ellipse cx="0" cy="2.5" rx="0.3" ry="0.5"/>
    </g>
  </g>
</svg> 